<svg width="56" height="24" viewBox="0 0 56 24" fill="none" xmlns="http://www.w3.org/2000/svg">
<path d="M12.7208 1.35135C11.2354 0.559127 9.52588 0.151367 7.61599 0.151367H0V19.4093H7.61599C9.51409 19.4093 11.2354 19.0132 12.7208 18.2093C14.2181 17.4054 15.397 16.2637 16.2223 14.7958C17.0358 13.3395 17.4484 11.6502 17.4484 9.77451C17.4484 7.89881 17.0358 6.20952 16.2223 4.75323C15.397 3.29695 14.2181 2.14357 12.7208 1.35135ZM12.3436 12.6871C11.8956 13.5026 11.2589 14.155 10.4572 14.6094C9.64377 15.0637 8.68883 15.2967 7.62778 15.2967H4.39747V4.26392H7.62778C8.68883 4.26392 9.64377 4.49693 10.4572 4.95129C11.2589 5.40565 11.8956 6.04641 12.3436 6.87359C12.7916 7.71241 13.0273 8.69103 13.0273 9.77451C13.0273 10.8813 12.7916 11.8599 12.3436 12.6871Z" fill="white"/>
<path d="M23.508 6.64062H19.2402V19.4093H23.508V6.64062Z" fill="white"/>
<path d="M21.3744 0C20.6553 0 20.054 0.233006 19.5824 0.687367C19.1109 1.14173 18.8633 1.75919 18.8633 2.45821C18.8633 3.13393 19.1109 3.72809 19.5824 4.18246C20.054 4.63682 20.6671 4.86982 21.3744 4.86982C22.1054 4.86982 22.7184 4.63682 23.2018 4.18246C23.6852 3.72809 23.9445 3.12228 23.9445 2.45821C23.9445 1.74754 23.6852 1.13008 23.2018 0.675717C22.7184 0.233006 22.1054 0 21.3744 0Z" fill="white"/>
<path d="M37.5256 6.05807C36.4763 5.45225 35.2738 5.14934 33.9416 5.14934C32.9513 5.14934 32.0199 5.31245 31.1828 5.62701C30.8292 5.75516 30.499 5.91826 30.1925 6.09302V0.151367H25.9365V19.4093H29.8742L29.886 18.5472C30.2043 18.7685 30.558 18.9549 30.9353 19.118C31.843 19.5025 32.8451 19.7006 33.9416 19.7006C35.262 19.7006 36.4645 19.3977 37.5256 18.7918C38.5748 18.186 39.4237 17.3123 40.0249 16.2171C40.6144 15.122 40.9209 13.8521 40.9209 12.4308C40.9209 11.0094 40.6144 9.73956 40.0249 8.64443C39.4237 7.526 38.5748 6.66388 37.5256 6.05807ZM35.7571 14.8307C35.1677 15.4366 34.3896 15.7395 33.4228 15.7395C32.4797 15.7395 31.7016 15.4366 31.1003 14.8307C30.499 14.2249 30.1925 13.4094 30.1925 12.4191C30.1925 11.4289 30.499 10.6133 31.1003 10.0075C31.7016 9.4017 32.4797 9.09879 33.4228 9.09879C34.3778 9.09879 35.1677 9.4017 35.7571 10.0075C36.3466 10.6133 36.6531 11.4289 36.6531 12.4191C36.6531 13.4094 36.3584 14.2249 35.7571 14.8307Z" fill="white"/>
<path d="M55.9998 5.4292H51.4019L48.82 11.6039L48.0066 13.5961L47.2874 11.6155L44.8941 5.4292H40.3198L45.6369 18.6523L45.5897 18.7571C45.3657 19.2581 45.0474 19.6426 44.623 19.9105C44.1514 20.2018 43.5737 20.3532 42.9135 20.3532C42.6306 20.3532 42.383 20.3416 42.1708 20.3299C41.9821 20.3183 41.7817 20.2833 41.5931 20.2484V23.8483C41.8053 23.8949 42.0647 23.9299 42.383 23.9532C42.7013 23.9881 43.0196 23.9998 43.3615 23.9998C45.0356 23.9998 46.3796 23.627 47.3935 22.8813C48.4074 22.1357 49.3034 20.8658 50.0815 19.0833L50.223 18.7688L55.9998 5.4292Z" fill="white"/>
</svg>
