<svg width="24" height="24" viewBox="0 0 24 24" fill="none" xmlns="http://www.w3.org/2000/svg">
<path fill-rule="evenodd" clip-rule="evenodd" d="M5.70712 4.29292C5.3166 3.9024 4.68343 3.9024 4.29291 4.29292C3.90238 4.68345 3.90238 5.31661 4.29291 5.70714L10.5858 12L4.29291 18.2929C3.90238 18.6834 3.90238 19.3166 4.29291 19.7071C4.68343 20.0977 5.3166 20.0977 5.70712 19.7071L12 13.4142L18.2929 19.7071C18.6834 20.0977 19.3166 20.0977 19.7071 19.7071C20.0976 19.3166 20.0976 18.6834 19.7071 18.2929L13.4142 12L19.7071 5.70714C20.0976 5.31661 20.0976 4.68345 19.7071 4.29292C19.3166 3.9024 18.6834 3.9024 18.2929 4.29292L12 10.5858L5.70712 4.29292Z" fill="#3C3C46"/>
</svg>
