<svg width="40" height="40" viewBox="0 0 40 40" fill="none" xmlns="http://www.w3.org/2000/svg">
<path d="M20 0H0V20H20V0Z" fill="#7B3CE9"/>
<path d="M40 0H20V20H40V0Z" fill="#22E1D5"/>
<path d="M20 20H0V40H20V20Z" fill="#A7FF69"/>
<path d="M40 20H20V40H40V20Z" fill="#2978F0"/>
<path d="M10.0004 17.8104C11.8285 17.8104 13.3104 16.3285 13.3104 14.5004C13.3104 12.6724 11.8285 11.1904 10.0004 11.1904C8.17237 11.1904 6.69043 12.6724 6.69043 14.5004C6.69043 16.3285 8.17237 17.8104 10.0004 17.8104Z" fill="white"/>
<path d="M32.2504 30.9696C34.0785 30.9696 35.5604 29.4877 35.5604 27.6596C35.5604 25.8315 34.0785 24.3496 32.2504 24.3496C30.4224 24.3496 28.9404 25.8315 28.9404 27.6596C28.9404 29.4877 30.4224 30.9696 32.2504 30.9696Z" fill="white"/>
<path d="M18.0502 10.8104C19.8783 10.8104 21.3602 9.32849 21.3602 7.50043C21.3602 5.67237 19.8783 4.19043 18.0502 4.19043C16.2222 4.19043 14.7402 5.67237 14.7402 7.50043C14.7402 9.32849 16.2222 10.8104 18.0502 10.8104Z" fill="white"/>
</svg>
