<svg width="24" height="24" viewBox="0 0 24 24" fill="none" xmlns="http://www.w3.org/2000/svg">
<g clip-path="url(#clip0_99_417)">
<path d="M19.5254 12.324C19.5254 12.324 19.5254 12.324 19.5254 12.27C19.5254 12.216 19.5254 12.09 19.5254 12C19.5254 11.91 19.5254 11.82 19.5254 11.73C19.5254 11.64 19.5254 11.73 19.5254 11.676L20.5116 10.605C20.7757 10.3204 20.9396 9.96066 20.9794 9.5785C21.0192 9.19634 20.9328 8.81177 20.7328 8.48102L19.5346 6.48302C19.3399 6.16292 19.0483 5.90966 18.7 5.75815C18.3517 5.60663 17.9638 5.56431 17.5899 5.63702L16.0692 5.93402C16.0619 5.93725 16.0541 5.93893 16.0461 5.93893C16.0382 5.93893 16.0303 5.93725 16.0231 5.93402L15.507 5.64602H15.4609L14.9816 4.21502C14.8564 3.85918 14.6201 3.55061 14.306 3.33268C13.9919 3.11474 13.6158 2.99841 13.2305 3.00002H10.7696C10.3859 3.00028 10.0118 3.11749 9.69953 3.3353C9.38727 3.5531 9.1524 3.86064 9.02769 4.21502L8.52999 5.59202L8.01386 5.88002L6.41018 5.63702C6.03623 5.56431 5.6484 5.60663 5.30011 5.75815C4.95182 5.90966 4.66022 6.16292 4.46548 6.48302L3.2581 8.48102C3.05806 8.81177 2.97161 9.19634 3.01141 9.5785C3.05121 9.96066 3.21517 10.3204 3.4793 10.605L4.47469 11.676C4.47469 11.766 4.47469 11.856 4.47469 11.946C4.47469 12.036 4.47469 12.126 4.47469 12.216C4.47469 12.306 4.47469 12.216 4.47469 12.27L3.4793 13.395C3.21517 13.6797 3.05121 14.0394 3.01141 14.4215C2.97161 14.8037 3.05806 15.1883 3.2581 15.519L4.46548 17.517C4.66022 17.8371 4.95182 18.0904 5.30011 18.2419C5.6484 18.3934 6.03623 18.4357 6.41018 18.363L7.93091 18.066L8.44704 18.354H8.52999L9.00926 19.731C9.12541 20.0984 9.35898 20.4198 9.67576 20.6482C9.99254 20.8765 10.3759 20.9998 10.7696 21H13.2305C13.6158 21.0016 13.9919 20.8853 14.306 20.6674C14.6201 20.4494 14.8564 20.1409 14.9816 19.785L15.4609 18.408H15.507L16.0231 18.12C16.0303 18.1168 16.0382 18.1151 16.0461 18.1151C16.0541 18.1151 16.0619 18.1168 16.0692 18.12L17.5899 18.417C17.9638 18.4897 18.3517 18.4474 18.7 18.2959C19.0483 18.1444 19.3399 17.8911 19.5346 17.571L20.742 15.573C20.9541 15.2358 21.0466 14.8396 21.0049 14.4459C20.9632 14.0521 20.7899 13.6828 20.5116 13.395L19.5254 12.324ZM17.9493 16.599L16.4286 16.302C15.9506 16.2146 15.4564 16.3079 15.0461 16.563L14.6498 16.779C14.2172 17.0035 13.8878 17.3798 13.7282 17.832L13.2305 19.2H10.7696L10.2904 17.832C10.2156 17.6058 10.0956 17.3962 9.93742 17.2155C9.77922 17.0347 9.58593 16.8864 9.3687 16.779L8.97239 16.563C8.56715 16.3124 8.08045 16.2193 7.60833 16.302L6.0876 16.599L4.84336 14.601L5.83875 13.539C6.1727 13.1708 6.34486 12.6891 6.31801 12.198V11.802C6.34486 11.3109 6.1727 10.8292 5.83875 10.461L4.84336 9.39902L6.05073 7.40102L7.60833 7.69802C8.08638 7.79309 8.58352 7.69923 8.99082 7.43702L9.38714 7.22102C9.60436 7.11364 9.79766 6.96529 9.95585 6.78456C10.114 6.60382 10.234 6.39428 10.3088 6.16802L10.7696 4.80002H13.2305L13.7005 6.16802C13.8602 6.62027 14.1895 6.99656 14.6222 7.22102L15.0185 7.43702C15.4287 7.69211 15.9229 7.78541 16.401 7.69802L17.9217 7.40102L19.1291 9.39902L18.1613 10.461C17.8249 10.8283 17.6495 11.3098 17.6728 11.802C17.6851 11.9337 17.6851 12.0663 17.6728 12.198C17.6495 12.6902 17.8249 13.1717 18.1613 13.539L19.1567 14.601L17.9493 16.599Z" fill="#3C3C46"/>
<path d="M11.9952 8.3999C11.2661 8.3999 10.5533 8.61104 9.94705 9.00661C9.34078 9.40218 8.86826 9.96443 8.58922 10.6222C8.31019 11.2801 8.23718 12.0039 8.37943 12.7022C8.52168 13.4006 8.8728 14.042 9.38839 14.5455C9.90397 15.049 10.5609 15.3918 11.276 15.5307C11.9911 15.6696 12.7324 15.5983 13.406 15.3259C14.0797 15.0534 14.6555 14.592 15.0606 14C15.4656 13.4079 15.6819 12.7119 15.6819 11.9999C15.6819 11.0451 15.2935 10.1294 14.6021 9.45432C13.9107 8.77919 12.973 8.3999 11.9952 8.3999ZM11.9952 13.7999C11.6307 13.7999 11.2743 13.6943 10.9711 13.4965C10.668 13.2988 10.4317 13.0176 10.2922 12.6887C10.1527 12.3598 10.1162 11.9979 10.1873 11.6487C10.2585 11.2996 10.434 10.9788 10.6918 10.7271C10.9496 10.4754 11.278 10.3039 11.6356 10.2345C11.9932 10.165 12.3638 10.2007 12.7006 10.3369C13.0375 10.4732 13.3253 10.7039 13.5279 10.9999C13.7304 11.2959 13.8385 11.6439 13.8385 11.9999C13.8385 12.4773 13.6443 12.9351 13.2987 13.2727C12.953 13.6103 12.4841 13.7999 11.9952 13.7999Z" fill="#3C3C46"/>
</g>
<defs>
<clipPath id="clip0_99_417">
<rect width="18" height="18" fill="white" transform="translate(3 3)"/>
</clipPath>
</defs>
</svg>
