<svg width="40" height="40" viewBox="0 0 40 40" fill="none" xmlns="http://www.w3.org/2000/svg">
<path d="M6 12C9.31371 12 12 9.31371 12 6C12 2.68629 9.31371 0 6 0C2.68629 0 0 2.68629 0 6C0 9.31371 2.68629 12 6 12Z" fill="#7B3CE9"/>
<path d="M6 40C9.31371 40 12 37.3137 12 34C12 30.6863 9.31371 28 6 28C2.68629 28 0 30.6863 0 34C0 37.3137 2.68629 40 6 40Z" fill="#22E1D5"/>
<path d="M34 40C37.3137 40 40 37.3137 40 34C40 30.6863 37.3137 28 34 28C30.6863 28 28 30.6863 28 34C28 37.3137 30.6863 40 34 40Z" fill="#22E1D5"/>
<path d="M34 12C37.3137 12 40 9.31371 40 6C40 2.68629 37.3137 0 34 0C30.6863 0 28 2.68629 28 6C28 9.31371 30.6863 12 34 12Z" fill="#22E1D5"/>
<path d="M15.8001 30.1597C23.6536 30.1597 30.0201 23.7932 30.0201 15.9397C30.0201 8.08624 23.6536 1.71973 15.8001 1.71973C7.94659 1.71973 1.58008 8.08624 1.58008 15.9397C1.58008 23.7932 7.94659 30.1597 15.8001 30.1597Z" fill="#A7FF69"/>
<path d="M25.5331 22.2833L22.3936 25.4229L30.8575 33.8868L33.9971 30.7473L25.5331 22.2833Z" fill="#2978F0"/>
</svg>
