<svg width="40" height="40" viewBox="0 0 40 40" fill="none" xmlns="http://www.w3.org/2000/svg">
<path d="M24.17 0H0V10H24.17V0Z" fill="#22E1D5"/>
<path d="M31.3302 15H7.16016V25H31.3302V15Z" fill="#22E1D5"/>
<path d="M24.17 30H0V40H24.17V30Z" fill="#2978F0"/>
<path d="M31.3196 28.6803C36.1135 28.6803 39.9996 24.7941 39.9996 20.0003C39.9996 15.2065 36.1135 11.3203 31.3196 11.3203C26.5258 11.3203 22.6396 15.2065 22.6396 20.0003C22.6396 24.7941 26.5258 28.6803 31.3196 28.6803Z" fill="#7B3CE9"/>
<path d="M37.8703 18.4002L31.2703 25.0002L24.7803 18.5102L26.9403 16.3502L31.2703 20.6802L35.7103 16.2402L37.8703 18.4002Z" fill="#A7FF69"/>
</svg>
