<svg width="24" height="24" viewBox="0 0 24 24" fill="none" xmlns="http://www.w3.org/2000/svg">
<path fill-rule="evenodd" clip-rule="evenodd" d="M17 4C15.8954 4 15 4.89543 15 6C15 7.10457 15.8954 8 17 8C18.1046 8 19 7.10457 19 6C19 4.89543 18.1046 4 17 4ZM13 6C13 3.79086 14.7909 2 17 2C19.2091 2 21 3.79086 21 6C21 8.20914 19.2091 10 17 10C15.9065 10 14.9155 9.5612 14.1934 8.85008L10.8365 10.8642C10.9429 11.2243 11 11.6055 11 12C11 12.3945 10.9429 12.7757 10.8365 13.1358L14.1934 15.1499C14.9154 14.4388 15.9065 14 17 14C19.2091 14 21 15.7909 21 18C21 20.2091 19.2091 22 17 22C14.7909 22 13 20.2091 13 18C13 17.6055 13.0571 17.2244 13.1635 16.8644L9.8065 14.8502C9.08444 15.5612 8.09346 16 7 16C4.79086 16 3 14.2091 3 12C3 9.79086 4.79086 8 7 8C8.09346 8 9.08445 8.43876 9.80651 9.14982L13.1635 7.13563C13.0571 6.77563 13 6.39449 13 6ZM5 12C5 10.8954 5.89543 10 7 10C8.10457 10 9 10.8954 9 12C9 13.1046 8.10457 14 7 14C5.89543 14 5 13.1046 5 12ZM17 16C15.8954 16 15 16.8954 15 18C15 19.1046 15.8954 20 17 20C18.1046 20 19 19.1046 19 18C19 16.8954 18.1046 16 17 16Z" fill="#3C3C46"/>
</svg>
