<svg width="24" height="24" viewBox="0 0 24 24" fill="none" xmlns="http://www.w3.org/2000/svg">
<path fill-rule="evenodd" clip-rule="evenodd" d="M12.2929 17.2929C11.9024 17.6834 11.9024 18.3166 12.2929 18.7071C12.6834 19.0976 13.3166 19.0976 13.7071 18.7071L19.7071 12.7071C19.7107 12.7035 19.7143 12.6999 19.7178 12.6963C19.8925 12.5162 20 12.2707 20 12C20 11.7271 19.8907 11.4798 19.7135 11.2994C19.7114 11.2972 19.7093 11.295 19.7071 11.2929L13.7071 5.29289C13.3166 4.90237 12.6834 4.90237 12.2929 5.29289C11.9024 5.68342 11.9024 6.31658 12.2929 6.70711L16.5858 11L5 11C4.44771 11 4 11.4477 4 12C4 12.5523 4.44771 13 5 13L16.5858 13L12.2929 17.2929Z" fill="white"/>
</svg>
