<svg width="24" height="24" viewBox="0 0 24 24" fill="none" xmlns="http://www.w3.org/2000/svg">
<path fill-rule="evenodd" clip-rule="evenodd" d="M15.8536 8.85355C16.0488 8.65829 16.0488 8.34171 15.8536 8.14645C15.6583 7.95118 15.3417 7.95118 15.1464 8.14645L12 11.2929L8.85355 8.14645C8.65829 7.95118 8.34171 7.95118 8.14645 8.14645C7.95118 8.34171 7.95118 8.65829 8.14645 8.85355L11.2929 12L8.14645 15.1464C7.95118 15.3417 7.95118 15.6583 8.14645 15.8536C8.34171 16.0488 8.65829 16.0488 8.85355 15.8536L12 12.7071L15.1464 15.8536C15.3417 16.0488 15.6583 16.0488 15.8536 15.8536C16.0488 15.6583 16.0488 15.3417 15.8536 15.1464L12.7071 12L15.8536 8.85355Z" fill="currentColor"/>
</svg>