<svg width="40" height="40" viewBox="0 0 40 40" fill="none" xmlns="http://www.w3.org/2000/svg">
<path d="M6 12C9.31371 12 12 9.31371 12 6C12 2.68629 9.31371 0 6 0C2.68629 0 0 2.68629 0 6C0 9.31371 2.68629 12 6 12Z" fill="#999999"/>
<path d="M6 40C9.31371 40 12 37.3137 12 34C12 30.6863 9.31371 28 6 28C2.68629 28 0 30.6863 0 34C0 37.3137 2.68629 40 6 40Z" fill="#CCCCCC"/>
<path d="M34 40C37.3137 40 40 37.3137 40 34C40 30.6863 37.3137 28 34 28C30.6863 28 28 30.6863 28 34C28 37.3137 30.6863 40 34 40Z" fill="#CCCCCC"/>
<path d="M34 12C37.3137 12 40 9.31371 40 6C40 2.68629 37.3137 0 34 0C30.6863 0 28 2.68629 28 6C28 9.31371 30.6863 12 34 12Z" fill="#CCCCCC"/>
<path d="M15.8001 30.16C23.6536 30.16 30.0201 23.7935 30.0201 15.94C30.0201 8.08648 23.6536 1.71997 15.8001 1.71997C7.94659 1.71997 1.58008 8.08648 1.58008 15.94C1.58008 23.7935 7.94659 30.16 15.8001 30.16Z" fill="#CCCCCC"/>
<path d="M25.5331 22.283L22.3936 25.4225L30.8575 33.8865L33.9971 30.7469L25.5331 22.283Z" fill="#999999"/>
</svg>
