<svg width="140" height="80" viewBox="0 0 140 80" fill="none" xmlns="http://www.w3.org/2000/svg">
<path fill-rule="evenodd" clip-rule="evenodd" d="M51.5888 15.2536C52.6204 14.2597 53.9357 13.75 55.5088 13.75C57.1078 13.75 58.4489 14.2597 59.5062 15.2281C60.5636 16.2221 61.131 17.5728 61.131 19.1274C61.131 20.5801 60.5636 21.9053 59.5062 22.8992C58.4489 23.8931 57.1078 24.4028 55.5088 24.4028C53.9614 24.4028 52.6204 23.8931 51.5888 22.8992C50.5572 21.9053 50.0156 20.6055 50.0156 19.1274C50.0156 17.5983 50.5572 16.2476 51.5888 15.2536ZM36.578 16.707C33.3285 14.974 29.589 14.082 25.4111 14.082H8.75098V56.2092H25.4111C29.5633 56.2092 33.3285 55.3427 36.578 53.5842C39.8533 51.8257 42.4323 49.3282 44.2376 46.117C46.0171 42.9314 46.9197 39.236 46.9197 35.1329C46.9197 31.0297 46.0171 27.3344 44.2376 24.1487C42.4323 20.9631 39.8533 18.44 36.578 16.707ZM35.7528 41.5042C34.7728 43.2881 33.3801 44.7153 31.6264 45.7092C29.8469 46.7032 27.758 47.2129 25.4369 47.2129H18.3705V23.0783H25.4369C27.758 23.0783 29.8469 23.588 31.6264 24.582C33.3801 25.5759 34.7728 26.9776 35.7528 28.787C36.7328 30.622 37.2486 32.7627 37.2486 35.1329C37.2486 37.554 36.7328 39.6947 35.7528 41.5042ZM60.1767 28.2812H50.8408V56.2131H60.1767V28.2812ZM90.8405 27.0031C88.5452 25.6778 85.9147 25.0152 83.0005 25.0152C80.8341 25.0152 78.7967 25.372 76.9657 26.0601C76.192 26.3404 75.4699 26.6972 74.7993 27.0795V14.082H65.4893V56.2092H74.103L74.1288 54.3233C74.8251 54.8075 75.5988 55.2153 76.4241 55.572C78.4099 56.4131 80.602 56.8463 83.0005 56.8463C85.8889 56.8463 88.5195 56.1837 90.8405 54.8585C93.1358 53.5332 94.9927 51.6218 96.308 49.2262C97.5974 46.8306 98.268 44.0527 98.268 40.9435C98.268 37.8343 97.5974 35.0564 96.308 32.6608C94.9927 30.2142 93.1358 28.3283 90.8405 27.0031ZM86.9721 46.1935C85.6826 47.5187 83.9805 48.1813 81.8657 48.1813C79.8025 48.1813 78.1004 47.5187 76.7851 46.1935C75.4699 44.8682 74.7993 43.0843 74.7993 40.918C74.7993 38.7518 75.4699 36.9678 76.7851 35.6426C78.1004 34.3173 79.8025 33.6547 81.8657 33.6547C83.9547 33.6547 85.6826 34.3173 86.9721 35.6426C88.2616 36.9678 88.9321 38.7518 88.9321 40.918C88.9321 43.0843 88.2874 44.8682 86.9721 46.1935ZM121.192 25.625H131.25L118.613 54.8056L118.303 55.4937C116.601 59.393 114.641 62.1709 112.423 63.8019C110.205 65.433 107.265 66.2485 103.603 66.2485C102.855 66.2485 102.159 66.223 101.462 66.1466C100.766 66.0956 100.199 66.0191 99.7345 65.9172V58.0422C100.147 58.1187 100.586 58.1952 100.998 58.2206C101.462 58.2461 102.004 58.2716 102.623 58.2716C104.067 58.2716 105.331 57.9403 106.362 57.3032C107.291 56.717 107.987 55.876 108.477 54.7801L108.58 54.5508L96.9492 25.625H106.956L112.191 39.1577L113.764 43.4902L115.544 39.1322L121.192 25.625Z" fill="#2C2C36"/>
</svg>
