<svg width="24" height="24" viewBox="0 0 24 24" fill="none" xmlns="http://www.w3.org/2000/svg">
<path fill-rule="evenodd" clip-rule="evenodd" d="M9 6.27273C9 5.53314 9.86824 4 12 4C14.1252 4 15 5.56303 15 6.27273V8H9V6.27273ZM7 8V6.27273C7 4.39413 8.79843 2 12 2C15.2081 2 17 4.43697 17 6.27273V8H18C19.6569 8 21 9.34315 21 11V19C21 20.6569 19.6569 22 18 22H6C4.34315 22 3 20.6569 3 19V11C3 9.34315 4.34315 8 6 8H7ZM5 11C5 10.4477 5.44772 10 6 10H18C18.5523 10 19 10.4477 19 11V19C19 19.5523 18.5523 20 18 20H6C5.44772 20 5 19.5523 5 19V11ZM13 15.7324C13.5978 15.3866 14 14.7403 14 14C14 12.8954 13.1046 12 12 12C10.8954 12 10 12.8954 10 14C10 14.7403 10.4022 15.3866 11 15.7324V17C11 17.5523 11.4477 18 12 18C12.5523 18 13 17.5523 13 17V15.7324Z" fill="#999999"/>
</svg>
