<svg width="28" height="38" viewBox="0 0 28 38" fill="none" xmlns="http://www.w3.org/2000/svg">
<g clip-path="url(#clip0_375_2346)">
<path d="M14.4647 35.5637C14.5236 34.2538 13.2535 33.6513 14.0162 32.5673C14.4352 31.9746 15.0211 32.2595 15.4925 32.6983C16.3206 33.6807 16.3992 35.1085 15.535 36.3627C14.8542 37.3452 13.571 37.951 12.2617 38.0001C12.9393 37.8233 14.4025 36.8638 14.4647 35.5637Z" fill="url(#paint0_linear_375_2346)"/>
<path d="M15.0834 32.2989C15.2324 32.4185 15.3695 32.5523 15.4926 32.6984C15.0212 32.2596 14.4353 31.9747 14.0163 32.5674C13.2536 33.6513 14.5237 34.2637 14.4648 35.5638C14.4058 36.8638 12.9394 37.8233 12.2749 37.9969C11.6953 38.0232 11.1169 37.9238 10.5793 37.7055C10.4033 37.6314 10.2317 37.5472 10.0654 37.4533H10.0851C11.1063 37.8102 12.1473 36.9621 12.5466 36.2711C12.7233 36.0065 12.8408 35.7068 12.8911 35.3926C12.9414 35.0783 12.9232 34.7569 12.8379 34.4504C12.7626 33.9821 12.3731 33.6382 12.6317 32.8654C12.9427 31.9321 13.8887 31.3426 15.0834 32.2989Z" fill="url(#paint1_linear_375_2346)"/>
<path d="M6.37 15.6139C0.150688 19.6189 -1.05717 27.4356 3.64005 33.0682C5.27463 34.9953 7.38329 36.4626 9.75789 37.3253C9.33886 37.0426 8.96101 36.7032 8.63514 36.3167C6.82172 34.1423 8.35036 32.1414 9.44693 31.5585C11.9674 30.2192 17.9576 30.5499 19.9936 30.3665C21.244 30.2552 24.7661 29.9244 26.4944 27.9498C28.1049 26.1159 28.3929 22.8085 27.5058 20.9353C27.136 20.0857 26.6644 19.2841 26.1016 18.548C21.4076 12.9286 12.5729 11.6089 6.37 15.6139Z" fill="#3C3C46"/>
<path d="M4.10134 30.9756C2.40576 26.0897 4.61198 22.1339 5.4925 20.824C4.60402 20.0933 3.63545 19.466 2.60543 18.9541C1.62141 20.6685 1.06508 22.595 0.9836 24.5703C0.902116 26.5455 1.29788 28.5113 2.13735 30.301C3.28705 32.8751 5.22563 35.0164 7.67253 36.415C5.32229 34.8529 4.61525 32.4591 4.10134 30.9756Z" fill="url(#paint2_linear_375_2346)"/>
<path d="M12.73 26.2176C12.6262 26.1674 12.511 26.1455 12.3961 26.1541C12.2811 26.1627 12.1705 26.2016 12.0753 26.2667C11.9831 26.3372 11.8776 26.3884 11.7651 26.4171C11.6526 26.4458 11.5354 26.4515 11.4207 26.4337L10.9559 26.3485C10.7932 26.3257 10.6352 26.277 10.4878 26.2045C10.4078 26.1378 10.3486 26.0497 10.3173 25.9504C10.286 25.8511 10.2838 25.7449 10.311 25.6445C10.403 25.4069 10.5711 25.2066 10.7889 25.0747C10.9507 25.005 11.1291 24.9834 11.3028 25.0125C11.4737 25.0414 11.6491 25.0014 11.7906 24.9011C11.8775 24.8388 11.9478 24.756 11.9954 24.6602C12.043 24.5644 12.0664 24.4583 12.0635 24.3513C12.0607 24.2444 12.0316 24.1397 11.979 24.0466C11.9264 23.9534 11.8517 23.8746 11.7616 23.8169C11.6714 23.7593 11.5686 23.7247 11.462 23.716C11.3553 23.7074 11.2482 23.725 11.15 23.7674C11.0518 23.8097 10.9654 23.8755 10.8985 23.959C10.8315 24.0424 10.786 24.141 10.766 24.2462C10.727 24.4798 10.6049 24.6914 10.4223 24.8422C10.174 25.0393 9.89972 25.2012 9.60725 25.3236C9.2774 25.478 8.91743 25.5574 8.55324 25.5561C7.68581 25.5102 6.66454 25.4676 5.712 24.1905C5.36734 23.7082 5.06194 23.199 4.79874 22.6677C4.20955 21.3055 3.76437 21.9342 3.42395 22.1503C3.08352 22.3665 2.86748 22.9887 3.30611 23.6338C3.35193 23.6895 3.39776 23.7419 3.44032 23.7975C4.09498 24.59 5.38794 26.0178 6.88385 26.4173C7.03769 26.4599 7.3192 26.5254 7.74473 26.6531C8.27453 26.796 8.78146 27.0132 9.25046 27.2982C9.5101 27.4707 9.73267 27.6934 9.90513 27.9532C10.0126 28.1535 10.0474 28.385 10.0033 28.6081C9.98214 28.7195 9.99023 28.8345 10.0268 28.9419C10.0634 29.0492 10.1272 29.1452 10.212 29.2204C10.2968 29.2957 10.3997 29.3476 10.5105 29.3712C10.6214 29.3947 10.7365 29.3891 10.8446 29.3547C10.9405 29.3239 11.028 29.2712 11.1003 29.2009C11.1726 29.1306 11.2277 29.0446 11.2612 28.9495C11.2948 28.8544 11.306 28.7529 11.2939 28.6528C11.2818 28.5526 11.2468 28.4567 11.1915 28.3723C11.0953 28.2282 10.9458 28.128 10.7758 28.094C10.5993 28.0573 10.4369 27.971 10.3077 27.8451C10.1549 27.6447 10.072 27.3996 10.0721 27.1476C10.0819 27.0434 10.1218 26.9442 10.1869 26.8623C10.2519 26.7803 10.3394 26.719 10.4387 26.6858C10.6021 26.6697 10.7671 26.6819 10.9264 26.7219L11.2865 26.7874C11.417 26.8034 11.5427 26.8466 11.6555 26.9143C11.7683 26.982 11.8656 27.0726 11.9411 27.1803C12.0208 27.3036 12.1396 27.3965 12.2784 27.4442C12.4171 27.4918 12.5679 27.4914 12.7065 27.4431C12.845 27.3947 12.9633 27.3012 13.0424 27.1776C13.1214 27.0539 13.1567 26.9073 13.1424 26.7612C13.1303 26.6414 13.0853 26.5273 13.0126 26.4314C12.9398 26.3355 12.8421 26.2615 12.73 26.2176Z" fill="url(#paint3_linear_375_2346)"/>
<path d="M2.44851 28.0579L1.63346 28.4738C0.939514 25.2416 2.4256 23.2342 2.4256 23.2342L1.20793 22.9591C1.43135 22.3886 1.74525 21.8578 2.13755 21.3872C2.69541 20.7148 3.35871 20.1375 4.10154 19.6778C3.5058 19.1473 2.96242 18.6168 2.48779 18.106C-0.235611 20.3033 -0.00647692 23.8629 -0.00647692 23.8629L0.520528 23.9219L0.8675 23.9612C0.675742 24.4757 0.539668 25.0092 0.461608 25.5527C0.299563 26.7045 0.338326 27.8756 0.576174 29.0141C0.639921 29.3351 0.721886 29.6521 0.821673 29.9638L1.18829 29.7771L1.51562 29.6035C1.98328 30.7115 2.5893 31.7557 3.31922 32.7113C4.1276 33.7393 5.06871 34.6554 6.11791 35.4358C3.25048 32.78 2.44851 28.0579 2.44851 28.0579Z" fill="url(#paint4_linear_375_2346)"/>
<path d="M7.66306 21.8819C10.1181 22.8643 12.9397 22.7268 14.812 22.4681C14.5174 22.4681 14.2163 22.4419 13.9086 22.4124C10.3603 22.085 6.32755 19.6158 3.53213 17.1729C2.953 17.5383 2.4247 17.9788 1.96094 18.4827C3.67933 19.8971 5.60181 21.0432 7.66306 21.8819Z" fill="url(#paint5_linear_375_2346)"/>
<path d="M6.69404 7.46965C6.69404 7.46965 5.41744 4.25714 4.57293 2.13839C3.72841 0.0196361 8.17358 -1.90263 17.5844 3.52688C26.9952 8.95638 26.2751 18.7413 25.7251 19.6615C25.1752 20.5817 21.1785 24.197 14.9755 23.5912C8.7726 22.9853 1.06393 15.9217 1.11303 13.8325C1.16213 11.7432 3.59093 8.7468 6.37325 7.56135L6.69404 7.46965Z" fill="url(#paint6_linear_375_2346)"/>
<path d="M14.2453 20.0413C17.9965 20.0413 21.0374 16.9991 21.0374 13.2462C21.0374 9.49343 17.9965 6.45117 14.2453 6.45117C10.4941 6.45117 7.45312 9.49343 7.45312 13.2462C7.45312 16.9991 10.4941 20.0413 14.2453 20.0413Z" fill="url(#paint7_linear_375_2346)"/>
<path d="M14.2455 18.3549C17.0657 18.3549 19.3519 16.0677 19.3519 13.2463C19.3519 10.4249 17.0657 8.1377 14.2455 8.1377C11.4254 8.1377 9.13916 10.4249 9.13916 13.2463C9.13916 16.0677 11.4254 18.3549 14.2455 18.3549Z" fill="white"/>
<path d="M26.2719 12.254C26.315 13.1311 26.13 14.0044 25.7351 14.7887C25.2433 12.1255 24.0857 9.63017 22.3701 7.53516C23.4428 7.7943 24.4028 8.39414 25.1062 9.24484C25.8096 10.0955 26.2186 11.1513 26.2719 12.254Z" fill="#A8FF69"/>
<path d="M13.1062 12.3687C13.2 12.6332 13.3762 12.8606 13.609 13.0174C13.8418 13.1741 14.1188 13.252 14.3992 13.2394C14.7485 13.2205 15.0764 13.0653 15.3125 12.8073C15.3581 12.9303 15.3857 13.0593 15.3943 13.1903C15.4014 13.4038 15.3562 13.6158 15.2625 13.8078C15.1689 13.9999 15.0296 14.1661 14.857 14.2919C14.6843 14.4178 14.4835 14.4995 14.272 14.5299C14.0606 14.5603 13.8449 14.5385 13.6438 14.4664C13.4426 14.3942 13.2622 14.274 13.1183 14.1162C12.9743 13.9583 12.8712 13.7676 12.8178 13.5607C12.7645 13.3538 12.7626 13.137 12.8123 12.9293C12.862 12.7215 12.9618 12.529 13.103 12.3687H13.1062Z" fill="#2878F0"/>
<path d="M14.4 13.2398C14.1195 13.2524 13.8423 13.1746 13.6095 13.0177C13.3766 12.8609 13.2002 12.6334 13.1064 12.3687C13.2584 12.2003 13.4514 12.0741 13.6667 12.0027C13.882 11.9313 14.1122 11.9169 14.3347 11.9612C14.5572 12.0054 14.7644 12.1067 14.936 12.255C15.1076 12.4034 15.2377 12.5938 15.3136 12.8076C15.0774 13.0657 14.7494 13.2209 14.4 13.2398Z" fill="url(#paint8_linear_375_2346)"/>
<path d="M4.89688 2.95359C4.78559 2.67196 4.6743 2.39689 4.56955 2.13818C3.72503 0.0227036 8.1702 -1.90284 17.581 3.52667C23.5155 6.94877 25.4206 12.0999 25.8822 15.6727C25.1583 13.0638 23.8345 10.6605 22.0164 8.6549C19.3682 5.74039 12.1047 1.30968 4.89688 2.95359Z" fill="#24E1D5"/>
<path d="M7.4241 9.31887C7.26043 9.31887 5.08367 8.88679 3.375 9.6462C4.23501 8.77031 5.25216 8.06408 6.37336 7.56437L6.70069 7.46289C6.70069 7.46289 7.61395 9.33524 7.4241 9.31887Z" fill="#24E1D5"/>
</g>
<defs>
<linearGradient id="paint0_linear_375_2346" x1="14.4749" y1="34.0594" x2="13.9586" y2="38.9212" gradientUnits="userSpaceOnUse">
<stop offset="0.07" stop-color="#2878F0"/>
<stop offset="0.22" stop-color="#2882ED"/>
<stop offset="0.5" stop-color="#279EE6"/>
<stop offset="0.85" stop-color="#25CCDA"/>
<stop offset="1" stop-color="#24E1D5"/>
</linearGradient>
<linearGradient id="paint1_linear_375_2346" x1="11.9323" y1="39.5952" x2="13.4621" y2="31.6435" gradientUnits="userSpaceOnUse">
<stop offset="0.16" stop-color="#2878F0"/>
<stop offset="0.75" stop-color="#7B3CE9"/>
</linearGradient>
<linearGradient id="paint2_linear_375_2346" x1="6.24411" y1="33.8533" x2="0.425955" y2="14.6534" gradientUnits="userSpaceOnUse">
<stop offset="0.14" stop-color="#A8FF69"/>
<stop offset="0.6" stop-color="#24E1D5"/>
</linearGradient>
<linearGradient id="paint3_linear_375_2346" x1="13.787" y1="28.3731" x2="4.0507" y2="21.8794" gradientUnits="userSpaceOnUse">
<stop offset="0.38" stop-color="#A8FF69"/>
<stop offset="1" stop-color="#24E1D5"/>
</linearGradient>
<linearGradient id="paint4_linear_375_2346" x1="5.65968" y1="24.7275" x2="7.61038" y2="22.0314" gradientUnits="userSpaceOnUse">
<stop stop-color="#2878F0"/>
<stop offset="1" stop-color="#7B3CE9"/>
</linearGradient>
<linearGradient id="paint5_linear_375_2346" x1="7.47112" y1="22.2494" x2="9.18546" y2="18.9417" gradientUnits="userSpaceOnUse">
<stop offset="0.17" stop-color="#A8FF69"/>
<stop offset="1" stop-color="#24E1D5"/>
</linearGradient>
<linearGradient id="paint6_linear_375_2346" x1="10.3631" y1="24.0269" x2="15.2951" y2="5.42989" gradientUnits="userSpaceOnUse">
<stop stop-color="#A8FF69"/>
<stop offset="1" stop-color="#24E1D5"/>
</linearGradient>
<linearGradient id="paint7_linear_375_2346" x1="-86827.6" y1="6249.82" x2="-86986.5" y2="6763.99" gradientUnits="userSpaceOnUse">
<stop stop-color="#A8FF69"/>
<stop offset="1" stop-color="#24E1D5"/>
</linearGradient>
<linearGradient id="paint8_linear_375_2346" x1="14501.2" y1="218" x2="14501.9" y2="222.709" gradientUnits="userSpaceOnUse">
<stop stop-color="#A8FF69"/>
<stop offset="1" stop-color="#24E1D5"/>
</linearGradient>
<clipPath id="clip0_375_2346">
<rect width="28" height="38" fill="white"/>
</clipPath>
</defs>
</svg>
