<svg width="24" height="24" viewBox="0 0 24 24" fill="none" xmlns="http://www.w3.org/2000/svg">
<path fill-rule="evenodd" clip-rule="evenodd" d="M12 11C13.6569 11 15 9.65685 15 8C15 6.34315 13.6569 5 12 5C10.3431 5 9 6.34315 9 8C9 9.65685 10.3431 11 12 11ZM17 8C17 9.42071 16.4075 10.703 15.456 11.6133C19.2758 13.0201 22 16.6919 22 21H21H20H4H3H2C2 16.6919 4.72422 13.0201 8.54397 11.6133C7.59254 10.703 7 9.42071 7 8C7 5.23858 9.23858 3 12 3C14.7614 3 17 5.23858 17 8ZM4.25203 19H19.748C18.8599 15.5495 15.7277 13 12 13C8.27232 13 5.14012 15.5495 4.25203 19Z" fill="#999999"/>
</svg>
