<svg width="24" height="24" viewBox="0 0 24 24" fill="none" xmlns="http://www.w3.org/2000/svg">
<path fill-rule="evenodd" clip-rule="evenodd" d="M15.8536 8.85356C16.0488 8.6583 16.0488 8.34172 15.8536 8.14645C15.6583 7.95119 15.3417 7.95119 15.1465 8.14645L12 11.2929L8.85357 8.14645C8.65831 7.95119 8.34172 7.95119 8.14646 8.14645C7.9512 8.34172 7.9512 8.6583 8.14646 8.85356L11.2929 12L8.14646 15.1465C7.9512 15.3417 7.9512 15.6583 8.14646 15.8536C8.34172 16.0488 8.65831 16.0488 8.85357 15.8536L12 12.7071L15.1465 15.8536C15.3417 16.0488 15.6583 16.0488 15.8536 15.8536C16.0488 15.6583 16.0488 15.3417 15.8536 15.1465L12.7071 12L15.8536 8.85356Z" fill="currentColor"/>
</svg>
