<svg width="25" height="24" viewBox="0 0 25 24" fill="none" xmlns="http://www.w3.org/2000/svg">
<path fill-rule="evenodd" clip-rule="evenodd" d="M11.0006 15.6121C10.6507 14.9643 9.97618 14.561 9.24286 14.561H7.5C5.84315 14.561 4.5 13.211 4.5 11.5457V7.5254C4.5 5.86013 5.84315 4.51016 7.5 4.51016H17.5C19.1569 4.51016 20.5 5.86013 20.5 7.5254V11.5457C20.5 13.211 19.1569 14.561 17.5 14.561H15.7571C15.0238 14.561 14.3493 14.9643 13.9994 15.6121L12.5 18.3882L11.0006 15.6121ZM7.5 2.5C4.73858 2.5 2.5 4.74995 2.5 7.5254V11.5457C2.5 14.3212 4.73858 16.5711 7.5 16.5711H9.24286L11.6211 20.9744C11.9996 21.6752 13.0004 21.6752 13.3789 20.9744L15.7571 16.5711H17.5C20.2614 16.5711 22.5 14.3212 22.5 11.5457V7.5254C22.5 4.74995 20.2614 2.5 17.5 2.5H7.5ZM8.5 10.5C9.05228 10.5 9.5 10.0523 9.5 9.5C9.5 8.94772 9.05228 8.5 8.5 8.5C7.94772 8.5 7.5 8.94772 7.5 9.5C7.5 10.0523 7.94772 10.5 8.5 10.5ZM13.5 9.5C13.5 10.0523 13.0523 10.5 12.5 10.5C11.9477 10.5 11.5 10.0523 11.5 9.5C11.5 8.94772 11.9477 8.5 12.5 8.5C13.0523 8.5 13.5 8.94772 13.5 9.5ZM16.5 10.5C17.0523 10.5 17.5 10.0523 17.5 9.5C17.5 8.94772 17.0523 8.5 16.5 8.5C15.9477 8.5 15.5 8.94772 15.5 9.5C15.5 10.0523 15.9477 10.5 16.5 10.5Z" fill="#CCCCCC"/>
</svg>
