<svg width="24" height="24" viewBox="0 0 24 24" fill="none" xmlns="http://www.w3.org/2000/svg">
<path fill-rule="evenodd" clip-rule="evenodd" d="M10.5006 15.6121C10.1507 14.9643 9.47618 14.561 8.74286 14.561H7C5.34315 14.561 4 13.211 4 11.5457V7.5254C4 5.86013 5.34315 4.51016 7 4.51016H17C18.6569 4.51016 20 5.86013 20 7.5254V11.5457C20 13.211 18.6569 14.561 17 14.561H15.2571C14.5238 14.561 13.8493 14.9643 13.4994 15.6121L12 18.3882L10.5006 15.6121ZM7 2.5C4.23858 2.5 2 4.74995 2 7.5254V11.5457C2 14.3212 4.23858 16.5711 7 16.5711H8.74286L11.1211 20.9744C11.4996 21.6752 12.5004 21.6752 12.8789 20.9744L15.2571 16.5711H17C19.7614 16.5711 22 14.3212 22 11.5457V7.5254C22 4.74995 19.7614 2.5 17 2.5H7ZM8 10.5C8.55228 10.5 9 10.0523 9 9.5C9 8.94772 8.55228 8.5 8 8.5C7.44772 8.5 7 8.94772 7 9.5C7 10.0523 7.44772 10.5 8 10.5ZM13 9.5C13 10.0523 12.5523 10.5 12 10.5C11.4477 10.5 11 10.0523 11 9.5C11 8.94772 11.4477 8.5 12 8.5C12.5523 8.5 13 8.94772 13 9.5ZM16 10.5C16.5523 10.5 17 10.0523 17 9.5C17 8.94772 16.5523 8.5 16 8.5C15.4477 8.5 15 8.94772 15 9.5C15 10.0523 15.4477 10.5 16 10.5Z" fill="#3C3C46"/>
</svg>
