<svg width="24" height="24" viewBox="0 0 24 24" fill="none" xmlns="http://www.w3.org/2000/svg">
<path fill-rule="evenodd" clip-rule="evenodd" d="M5 3C4.44772 3 4 3.44772 4 4V20C4 20.3414 4.1742 20.6593 4.462 20.8429C4.7498 21.0266 5.11143 21.0508 5.42111 20.907L9.23977 19.1341L12.0121 20.8503C12.3346 21.0499 12.7423 21.0499 13.0648 20.8503L15.7692 19.1761L18.4736 20.8503C18.7821 21.0412 19.1697 21.0501 19.4866 20.8736C19.8035 20.6971 20 20.3628 20 20V4C20 3.44772 19.5523 3 19 3H5ZM6 18.4332V5H18V18.2048L16.2956 17.1497C15.9731 16.9501 15.5654 16.9501 15.2429 17.1497L12.5385 18.8239L9.83405 17.1497C9.54789 16.9726 9.19183 16.9513 8.88658 17.093L6 18.4332ZM9 7C8.44772 7 8 7.44772 8 8C8 8.55228 8.44772 9 9 9H15C15.5523 9 16 8.55228 16 8C16 7.44772 15.5523 7 15 7H9ZM9 10C8.44772 10 8 10.4477 8 11C8 11.5523 8.44772 12 9 12H15C15.5523 12 16 11.5523 16 11C16 10.4477 15.5523 10 15 10H9ZM9 13C8.44772 13 8 13.4477 8 14C8 14.5523 8.44772 15 9 15H13C13.5523 15 14 14.5523 14 14C14 13.4477 13.5523 13 13 13H9Z" fill="#3C3C46"/>
</svg>
