<svg width="24" height="24" viewBox="0 0 24 24" fill="none" xmlns="http://www.w3.org/2000/svg">
<path fill-rule="evenodd" clip-rule="evenodd" d="M11 3C8.29949 3 6.0217 3.81408 4.41789 5.41789C2.81408 7.0217 2 9.29949 2 12C2 15.0139 3.10671 17.2971 4.8415 18.8151C6.55484 20.3143 8.80249 21 11 21C13.1975 21 15.4452 20.3143 17.1585 18.8151C18.8933 17.2971 20 15.0139 20 12V11H12V3H11ZM4 12C4 9.70051 4.68592 7.9783 5.83211 6.83211C6.80561 5.8586 8.19466 5.21712 10 5.04593V13H17.9488C17.7424 14.9552 16.9295 16.358 15.8415 17.3099C14.5548 18.4357 12.8025 19 11 19C9.19751 19 7.44516 18.4357 6.1585 17.3099C4.89329 16.2029 4 14.4861 4 12ZM15.5 4C14.9477 4 14.5 4.44772 14.5 5C14.5 5.55228 14.9477 6 15.5 6H21C21.5523 6 22 5.55228 22 5C22 4.44772 21.5523 4 21 4H15.5ZM15 7C14.4477 7 14 7.44772 14 8C14 8.55228 14.4477 9 15 9H20C20.5523 9 21 8.55228 21 8C21 7.44772 20.5523 7 20 7H15Z" fill="#3C3C46"/>
</svg>
