<svg width="40" height="40" viewBox="0 0 40 40" fill="none" xmlns="http://www.w3.org/2000/svg">
<path d="M24.17 0H0V10H24.17V0Z" fill="#24E1D5"/>
<path d="M31.3302 15H7.16016V25H31.3302V15Z" fill="#24E1D5"/>
<path d="M24.17 30H0V40H24.17V30Z" fill="#2878F0"/>
<path d="M31.3196 28.6799C36.1135 28.6799 39.9996 24.7938 39.9996 19.9999C39.9996 15.2061 36.1135 11.3199 31.3196 11.3199C26.5258 11.3199 22.6396 15.2061 22.6396 19.9999C22.6396 24.7938 26.5258 28.6799 31.3196 28.6799Z" fill="#7B3CE9"/>
<path d="M37.8703 18.4L31.2703 25L24.7803 18.51L26.9403 16.35L31.2703 20.68L35.7103 16.24L37.8703 18.4Z" fill="#A8FF69"/>
</svg>
