<svg width="24" height="24" viewBox="0 0 24 24" fill="none" xmlns="http://www.w3.org/2000/svg">
<path fill-rule="evenodd" clip-rule="evenodd" d="M13 4.5C13 3.94772 12.5523 3.5 12 3.5C11.4477 3.5 11 3.94772 11 4.5V7.5C11 8.05228 11.4477 8.5 12 8.5C12.5523 8.5 13 8.05228 13 7.5V4.5ZM19.5 13C20.0523 13 20.5 12.5523 20.5 12C20.5 11.4477 20.0523 11 19.5 11H16.5C15.9477 11 15.5 11.4477 15.5 12C15.5 12.5523 15.9477 13 16.5 13H19.5ZM18.0108 5.98958C18.4013 6.3801 18.4013 7.01327 18.0108 7.40379L15.8895 9.52511C15.499 9.91564 14.8658 9.91564 14.4753 9.52511C14.0848 9.13459 14.0848 8.50142 14.4753 8.1109L16.5966 5.98958C16.9871 5.59905 17.6203 5.59905 18.0108 5.98958ZM16.5965 18.0105C16.987 18.401 17.6201 18.401 18.0107 18.0105C18.4012 17.6199 18.4012 16.9868 18.0107 16.5962L15.8893 14.4749C15.4988 14.0844 14.8657 14.0844 14.4751 14.4749C14.0846 14.8654 14.0846 15.4986 14.4751 15.8891L16.5965 18.0105ZM12 15.5C12.5523 15.5 13 15.9477 13 16.5V19.5C13 20.0523 12.5523 20.5 12 20.5C11.4477 20.5 11 20.0523 11 19.5V16.5C11 15.9477 11.4477 15.5 12 15.5ZM7.5 13C8.05228 13 8.5 12.5523 8.5 12C8.5 11.4477 8.05228 11 7.5 11H4.5C3.94772 11 3.5 11.4477 3.5 12C3.5 12.5523 3.94772 13 4.5 13H7.5ZM9.52547 14.4749C9.91599 14.8655 9.91599 15.4986 9.52547 15.8891L7.40415 18.0105C7.01362 18.401 6.38046 18.401 5.98993 18.0105C5.59941 17.6199 5.59941 16.9868 5.98993 16.5962L8.11125 14.4749C8.50178 14.0844 9.13494 14.0844 9.52547 14.4749ZM8.1111 9.5251C8.50163 9.91562 9.13479 9.91562 9.52532 9.5251C9.91584 9.13458 9.91584 8.50141 9.52532 8.11089L7.404 5.98957C7.01347 5.59904 6.38031 5.59904 5.98978 5.98957C5.59926 6.38009 5.59926 7.01325 5.98978 7.40378L8.1111 9.5251Z" fill="#2878F0"/>
</svg>
