<svg width="40" height="40" viewBox="0 0 40 40" fill="none" xmlns="http://www.w3.org/2000/svg">
<path d="M20 0H0V20H20V0Z" fill="#7B3CE9"/>
<path d="M40 0H20V20H40V0Z" fill="#24E1D5"/>
<path d="M20 20H0V40H20V20Z" fill="#A8FF69"/>
<path d="M40 20H20V40H40V20Z" fill="#2878F0"/>
<path d="M10.0004 17.8099C11.8285 17.8099 13.3104 16.328 13.3104 14.4999C13.3104 12.6719 11.8285 11.1899 10.0004 11.1899C8.17237 11.1899 6.69043 12.6719 6.69043 14.4999C6.69043 16.328 8.17237 17.8099 10.0004 17.8099Z" fill="white"/>
<path d="M32.2504 30.97C34.0785 30.97 35.5604 29.488 35.5604 27.66C35.5604 25.8319 34.0785 24.35 32.2504 24.35C30.4224 24.35 28.9404 25.8319 28.9404 27.66C28.9404 29.488 30.4224 30.97 32.2504 30.97Z" fill="white"/>
<path d="M18.0502 10.8099C19.8783 10.8099 21.3602 9.328 21.3602 7.49994C21.3602 5.67188 19.8783 4.18994 18.0502 4.18994C16.2222 4.18994 14.7402 5.67188 14.7402 7.49994C14.7402 9.328 16.2222 10.8099 18.0502 10.8099Z" fill="white"/>
</svg>
